# xmcd
#
# Track frame offsets: 
#        150
#        20450
#        37352
#        53228
#        68703
#        88647
#        113027
#        128438
#        142592
#        162217
#        176231
#        191308
#        207665
#        221493
#        235502
#        256983
#        274523
#        291544
#
# Disc length: 4109 seconds
#
# Revision: 1
# Processed by: cddbd v1.5.2PL0 Copyright (c) Steve Scherf et al.
# Submitted via: ExactAudioCopy v0.95b4
#
DISCID=04100b12
DTITLE=Various Artist - Interscope Presents Club Bangers
DYEAR=2006
DGENRE=R&B
TTITLE0=Eminem: Shake That
TTITLE1=Pussycat Dolls Feat. Snoop Dog: Button
TTITLE2=Busta Rhymes: Touch It
TTITLE3=Nelly Furtado: Maneater (Dance Remix)
TTITLE4=Snoop Dogg Feat. Pharrell Williams: Drop It Like It's Hot
TTITLE5=Black Eyed Peas: My Humps
TTITLE6=50 Cent Feat. Olivia: Candy Shop
TTITLE7=Elan: Feel My Pressure
TTITLE8=Robin Thicke Feat. Pharrell Williams: Wanna Love You Girl
TTITLE9=Daddy Yankee: Rompe
TTITLE10=Tony Yayo Feat. 50 Cent: So Seductive
TTITLE11=Jurassic 5 Feat. Brick and Lace: Brown Girl
TTITLE12=Lloyd Banks: On Fire
TTITLE13=Lovemakers: Shake That Ass
TTITLE14=Hush Feat. Nate Dogg: Hush Is Coming
TTITLE15=Mobb Deep Feat. 50 Cent and Nate Dogg: Have A Party
TTITLE16=Field Mob: Baby Bend Over
TTITLE17=Missez Feat. Pimp C.: Love Song
EXTD=
EXTT0=
EXTT1=
EXTT2=
EXTT3=
EXTT4=
EXTT5=
EXTT6=
EXTT7=
EXTT8=
EXTT9=
EXTT10=
EXTT11=
EXTT12=
EXTT13=
EXTT14=
EXTT15=
EXTT16=
EXTT17=
PLAYORDER=
